<svg xmlns="http://www.w3.org/2000/svg" width="261.936" height="102.967" viewBox="0 0 261.936 102.967"><defs><style>.a{fill:#231f20;}.b{fill:#178dff;font-size:59px;font-family:SharpGroteskMedium22-Regular, Sharp Grotesk;}.c{fill:#ff5b3b;}.d{fill:#008eff;}</style></defs><g transform="translate(-73.064 -27.517)"><g transform="translate(-2710.99 -1368.575)"><g transform="translate(2918.059 1425.178)"><g transform="translate(1.027 49.984)"><path class="a" d="M3090.463,1561.371a2.057,2.057,0,0,1-.726,1.607,3.3,3.3,0,0,1-2.255.648h-6.117V1555.7h6.072c1.876,0,2.824.8,2.824,2.01a1.762,1.762,0,0,1-1.562,1.752A1.784,1.784,0,0,1,3090.463,1561.371Zm-6.843-4.2v1.73h3.192c.749,0,1.117-.3,1.117-.915,0-.547-.368-.815-1.117-.815Zm3.293,4.978c.815,0,1.216-.38,1.216-.96s-.4-.927-1.2-.927h-3.3v1.887Z" transform="translate(-3081.366 -1555.433)"/><path class="a" d="M3109.782,1555.7h2.254v4.141a2.181,2.181,0,0,0,2.412,2.288,2.2,2.2,0,0,0,2.4-2.288V1555.7h2.254v4.375a3.457,3.457,0,0,1-1.216,2.78,5.165,5.165,0,0,1-3.438,1.037,5.111,5.111,0,0,1-3.438-1.048,3.474,3.474,0,0,1-1.227-2.791Z" transform="translate(-3098.842 -1555.433)"/><path class="a" d="M3141.547,1563.626v-2.69l-3.951-5.235h2.557l2.288,3.226a2.3,2.3,0,0,1,.268.435h.021a1.352,1.352,0,0,1,.258-.435l2.377-3.226h2.423l-3.986,5.235v2.69Z" transform="translate(-3115.947 -1555.433)"/><path class="a" d="M3170.32,1563.626h-2.255V1555.7h2.255Z" transform="translate(-3134.686 -1555.433)"/><path class="a" d="M3180.512,1563.626V1555.7h2.4l4.141,4.5a4.152,4.152,0,0,1,.625.9h.044v-5.4h2.043v7.925h-2.243l-4.3-4.554a4.946,4.946,0,0,1-.625-.9h-.045v5.458Z" transform="translate(-3142.341 -1555.433)"/><path class="a" d="M3210.873,1562.3a4.106,4.106,0,0,1,.179-6.083,5.69,5.69,0,0,1,3.829-1.217,6.766,6.766,0,0,1,3.181.692,3.247,3.247,0,0,1,1.674,1.9l-2.433.4a2.446,2.446,0,0,0-2.489-1.362,2.549,2.549,0,0,0-2.846,2.667,2.417,2.417,0,0,0,.77,1.875,2.92,2.92,0,0,0,2.1.714,3.612,3.612,0,0,0,1.988-.491,1.549,1.549,0,0,0,.8-1.194v-.033h-2.991v-1.4h5.09v4.42h-1.719l-.1-1.362a4.009,4.009,0,0,1-3.639,1.629A4.815,4.815,0,0,1,3210.873,1562.3Z" transform="translate(-3160.237 -1555.005)"/><path class="a" d="M3255.813,1562.3a4.1,4.1,0,0,1,.178-6.083,5.689,5.689,0,0,1,3.828-1.217,6.766,6.766,0,0,1,3.181.692,3.245,3.245,0,0,1,1.674,1.9l-2.433.4a2.444,2.444,0,0,0-2.489-1.362,2.549,2.549,0,0,0-2.846,2.667,2.417,2.417,0,0,0,.77,1.875,2.919,2.919,0,0,0,2.1.714,3.611,3.611,0,0,0,1.987-.491,1.549,1.549,0,0,0,.8-1.194v-.033h-2.991v-1.4h5.089v4.42h-1.719l-.1-1.362a4.012,4.012,0,0,1-3.639,1.629A4.812,4.812,0,0,1,3255.813,1562.3Z" transform="translate(-3187.875 -1555.005)"/><path class="a" d="M3293.309,1563.626l-1.875-2.8h-2.31v2.8h-2.255V1555.7h5.4c2.546,0,3.282,1.306,3.282,2.511a2.388,2.388,0,0,1-1.787,2.344l2.077,3.069Zm-4.186-6.418v2.177h2.634c1.016,0,1.418-.469,1.418-1.1s-.413-1.072-1.407-1.072Z" transform="translate(-3207.749 -1555.433)"/><path class="a" d="M3314.653,1562.3a3.984,3.984,0,0,1,0-6.151,7.062,7.062,0,0,1,7.724,0,3.983,3.983,0,0,1,0,6.151,7.007,7.007,0,0,1-7.724,0Zm3.862-.514a3.146,3.146,0,0,0,2.132-.7,2.515,2.515,0,0,0,0-3.706,3.583,3.583,0,0,0-4.264,0,2.515,2.515,0,0,0,0,3.706A3.148,3.148,0,0,0,3318.515,1561.791Z" transform="translate(-3223.944 -1555.005)"/><path class="a" d="M3345.211,1555.7h2.254v4.141a2.18,2.18,0,0,0,2.411,2.288,2.2,2.2,0,0,0,2.4-2.288V1555.7h2.255v4.375a3.457,3.457,0,0,1-1.217,2.78,5.164,5.164,0,0,1-3.437,1.037,5.11,5.11,0,0,1-3.438-1.048,3.475,3.475,0,0,1-1.227-2.791Z" transform="translate(-3243.63 -1555.433)"/><path class="a" d="M3380.958,1555.7c2.065,0,3.3.994,3.3,2.634a2.468,2.468,0,0,1-.916,2.021,3.744,3.744,0,0,1-2.444.759h-3.08v2.512h-2.255V1555.7Zm-.558,3.907c.949,0,1.5-.446,1.5-1.216s-.536-1.183-1.484-1.183h-2.59v2.4Z" transform="translate(-3262.298 -1555.433)"/></g><text class="b" transform="translate(-4.069 35.397)"><tspan x="0" y="0">USA</tspan></text></g></g><g transform="translate(-132.068 -117.339)"><circle class="c" cx="0.75" cy="0.75" r="0.75" transform="translate(313.352 191.912)"/><circle class="c" cx="0.75" cy="0.75" r="0.75" transform="translate(290.792 226.521)"/><circle class="c" cx="0.844" cy="0.844" r="0.844" transform="translate(312.207 188.334)"/><circle class="c" cx="0.844" cy="0.844" r="0.844" transform="translate(287.243 228.286)"/><circle class="c" cx="0.95" cy="0.95" r="0.95" transform="translate(310.988 185.013)"/><circle class="c" cx="0.95" cy="0.95" r="0.95" transform="translate(282.561 230.082)"/><circle class="c" cx="1.063" cy="1.063" r="1.063" transform="translate(309.473 181.457)"/><circle class="c" cx="1.24" cy="1.24" r="1.24" transform="translate(307.17 177.302)"/><circle class="c" cx="1.24" cy="1.24" r="1.24" transform="translate(277.033 231.71)"/><circle class="c" cx="1.377" cy="1.377" r="1.377" transform="translate(304.554 173.207)"/><circle class="c" cx="1.716" cy="1.716" r="1.716" transform="translate(300.999 168.457)"/><circle class="c" cx="1.716" cy="1.716" r="1.716" transform="translate(270.022 232.259)"/><circle class="c" cx="1.835" cy="1.835" r="1.835" transform="translate(296.561 163.647)"/><circle class="c" cx="2.09" cy="2.09" r="2.09" transform="translate(290.926 158.878)"/><circle class="c" cx="1.832" cy="1.832" r="1.832" transform="translate(262.778 232.949)"/><circle class="c" cx="2.09" cy="2.09" r="2.09" transform="translate(255.019 232.692)"/><circle class="c" cx="2.593" cy="2.593" r="2.593" transform="translate(283.167 153.593)"/><circle class="c" cx="2.943" cy="2.943" r="2.943" transform="translate(273.005 149.285)"/><circle class="c" cx="2.943" cy="2.943" r="2.943" transform="translate(244.354 231.032)"/><circle class="d" cx="0.75" cy="0.75" r="0.75" transform="translate(205.132 201.368)"/><circle class="d" cx="0.75" cy="0.75" r="0.75" transform="translate(227.692 166.758)"/><circle class="d" cx="0.844" cy="0.844" r="0.844" transform="translate(206.089 204.757)"/><circle class="d" cx="0.844" cy="0.844" r="0.844" transform="translate(231.053 164.805)"/><circle class="d" cx="0.95" cy="0.95" r="0.95" transform="translate(207.096 207.868)"/><circle class="d" cx="0.95" cy="0.95" r="0.95" transform="translate(235.524 162.798)"/><circle class="d" cx="1.063" cy="1.063" r="1.063" transform="translate(208.385 211.197)"/><circle class="d" cx="1.24" cy="1.24" r="1.24" transform="translate(210.334 214.999)"/><circle class="d" cx="1.24" cy="1.24" r="1.24" transform="translate(240.472 160.59)"/><circle class="d" cx="1.377" cy="1.377" r="1.377" transform="translate(212.677 218.82)"/><circle class="d" cx="1.716" cy="1.716" r="1.716" transform="translate(215.553 222.892)"/><circle class="d" cx="1.716" cy="1.716" r="1.716" transform="translate(246.531 159.089)"/><circle class="d" cx="1.835" cy="1.835" r="1.835" transform="translate(219.752 227.462)"/><circle class="d" cx="2.09" cy="2.09" r="2.09" transform="translate(224.878 231.722)"/><circle class="d" cx="1.832" cy="1.832" r="1.832" transform="translate(253.542 158.166)"/><circle class="d" cx="2.09" cy="2.09" r="2.09" transform="translate(260.785 157.908)"/><circle class="d" cx="2.593" cy="2.593" r="2.593" transform="translate(231.631 236.001)"/><circle class="d" cx="2.943" cy="2.943" r="2.943" transform="translate(241.093 239.609)"/><circle class="c" cx="0.5" cy="0.5" r="0.5" transform="translate(295.561 193.738)"/><circle class="c" cx="0.5" cy="0.5" r="0.5" transform="translate(280.523 216.808)"/><circle class="c" cx="0.563" cy="0.563" r="0.563" transform="translate(294.798 191.353)"/><circle class="c" cx="0.563" cy="0.563" r="0.563" transform="translate(278.157 217.985)"/><circle class="c" cx="0.633" cy="0.633" r="0.633" transform="translate(293.985 189.139)"/><circle class="c" cx="0.633" cy="0.633" r="0.633" transform="translate(275.036 219.182)"/><circle class="c" cx="0.709" cy="0.709" r="0.709" transform="translate(292.975 186.769)"/><circle class="c" cx="0.826" cy="0.826" r="0.826" transform="translate(291.44 183.999)"/><circle class="c" cx="0.826" cy="0.826" r="0.826" transform="translate(271.351 220.267)"/><circle class="c" cx="0.918" cy="0.918" r="0.918" transform="translate(289.696 181.27)"/><circle class="c" cx="1.144" cy="1.144" r="1.144" transform="translate(287.327 178.103)"/><circle class="c" cx="1.144" cy="1.144" r="1.144" transform="translate(266.678 220.633)"/><circle class="c" cx="1.223" cy="1.223" r="1.223" transform="translate(284.368 174.897)"/><circle class="c" cx="1.393" cy="1.393" r="1.393" transform="translate(280.612 171.719)"/><circle class="c" cx="1.221" cy="1.221" r="1.221" transform="translate(261.849 221.093)"/><circle class="c" cx="1.393" cy="1.393" r="1.393" transform="translate(256.677 220.922)"/><circle class="c" cx="1.728" cy="1.728" r="1.728" transform="translate(275.44 168.195)"/><circle class="c" cx="1.962" cy="1.962" r="1.962" transform="translate(268.666 165.324)"/><circle class="c" cx="1.962" cy="1.962" r="1.962" transform="translate(249.568 219.815)"/><circle class="c" cx="2.302" cy="2.302" r="2.302" transform="translate(260.423 163.389)"/><circle class="c" cx="2.302" cy="2.302" r="2.302" transform="translate(241.692 216.808)"/><circle class="c" cx="2.533" cy="2.533" r="2.533" transform="translate(250.958 163.818)"/><path class="c" d="M295.018,231.868a2.83,2.83,0,1,0,2.826,2.826A2.832,2.832,0,0,0,295.018,231.868Zm0,5.162a2.332,2.332,0,1,1,2.328-2.336A2.333,2.333,0,0,1,295.018,237.03Z" transform="translate(-59.828 -59.8)"/><path class="c" d="M299.6,237.9a1.376,1.376,0,1,1-1.376-1.371A1.376,1.376,0,0,1,299.6,237.9Z" transform="translate(-63.031 -63)"/><path class="c" d="M275.556,299.245a2.83,2.83,0,1,0,2.826,2.826A2.832,2.832,0,0,0,275.556,299.245Zm0,5.162a2.332,2.332,0,1,1,2.328-2.336A2.333,2.333,0,0,1,275.556,304.407Z" transform="translate(-46.452 -106.105)"/><path class="c" d="M280.135,305.273a1.376,1.376,0,1,1-1.376-1.371A1.376,1.376,0,0,1,280.135,305.273Z" transform="translate(-49.655 -109.306)"/><path class="c" d="M260.614,378.246a3.783,3.783,0,1,0,3.778,3.778A3.786,3.786,0,0,0,260.614,378.246Zm0,6.9a3.118,3.118,0,1,1,3.113-3.123A3.119,3.119,0,0,1,260.614,385.147Z" transform="translate(-35.527 -160.4)"/><path class="c" d="M266.736,386.3a1.84,1.84,0,1,1-1.84-1.833A1.84,1.84,0,0,1,266.736,386.3Z" transform="translate(-39.809 -164.678)"/><path class="c" d="M341.059,151.848a3.783,3.783,0,1,0,3.778,3.778A3.786,3.786,0,0,0,341.059,151.848Zm0,6.9a3.118,3.118,0,1,1,3.112-3.123A3.119,3.119,0,0,1,341.059,158.749Z" transform="translate(-90.813 -4.805)"/><path class="c" d="M347.181,159.907a1.84,1.84,0,1,1-1.84-1.833A1.84,1.84,0,0,1,347.181,159.907Z" transform="translate(-95.096 -9.084)"/><path class="d" d="M449.76,197.752a3.43,3.43,0,1,0,3.425,3.425A3.432,3.432,0,0,0,449.76,197.752Zm0,6.257a2.827,2.827,0,1,1,2.822-2.832A2.828,2.828,0,0,1,449.76,204.009Z" transform="translate(-165.763 -36.353)"/><path class="d" d="M455.31,205.058a1.668,1.668,0,1,1-1.668-1.662A1.668,1.668,0,0,1,455.31,205.058Z" transform="translate(-169.645 -40.232)"/><path class="d" d="M450.15,435.821a3.756,3.756,0,1,0,3.751,3.751A3.758,3.758,0,0,0,450.15,435.821Zm0,6.852a3.1,3.1,0,1,1,3.09-3.1A3.1,3.1,0,0,1,450.15,442.673Z" transform="translate(-165.807 -199.969)"/><path class="d" d="M456.229,443.821A1.827,1.827,0,1,1,454.4,442,1.827,1.827,0,0,1,456.229,443.821Z" transform="translate(-170.058 -204.217)"/><path class="d" d="M453.644,375.7a2.831,2.831,0,1,0,2.827,2.827A2.833,2.833,0,0,0,453.644,375.7Zm0,5.163a2.333,2.333,0,1,1,2.329-2.337A2.334,2.334,0,0,1,453.644,380.867Z" transform="translate(-168.844 -158.653)"/><path class="d" d="M458.224,381.733a1.377,1.377,0,1,1-1.377-1.371A1.376,1.376,0,0,1,458.224,381.733Z" transform="translate(-172.048 -161.854)"/><circle class="d" cx="0.5" cy="0.5" r="0.5" transform="translate(223.423 200.041)"/><circle class="d" cx="0.5" cy="0.5" r="0.5" transform="translate(238.461 176.971)"/><circle class="d" cx="0.563" cy="0.563" r="0.563" transform="translate(224.061 202.301)"/><circle class="d" cx="0.563" cy="0.563" r="0.563" transform="translate(240.701 175.669)"/><circle class="d" cx="0.633" cy="0.633" r="0.633" transform="translate(224.733 204.374)"/><circle class="d" cx="0.633" cy="0.633" r="0.633" transform="translate(243.682 174.332)"/><circle class="d" cx="0.709" cy="0.709" r="0.709" transform="translate(225.591 206.593)"/><circle class="d" cx="0.826" cy="0.826" r="0.826" transform="translate(226.891 209.128)"/><circle class="d" cx="0.826" cy="0.826" r="0.826" transform="translate(246.98 172.86)"/><circle class="d" cx="0.918" cy="0.918" r="0.918" transform="translate(228.452 211.675)"/><circle class="d" cx="1.144" cy="1.144" r="1.144" transform="translate(230.37 214.389)"/><circle class="d" cx="1.144" cy="1.144" r="1.144" transform="translate(251.019 171.859)"/><circle class="d" cx="1.223" cy="1.223" r="1.223" transform="translate(233.169 217.435)"/><circle class="d" cx="1.393" cy="1.393" r="1.393" transform="translate(236.586 220.275)"/><circle class="d" cx="1.221" cy="1.221" r="1.221" transform="translate(255.692 171.244)"/><circle class="d" cx="1.393" cy="1.393" r="1.393" transform="translate(260.521 171.072)"/><circle class="d" cx="1.728" cy="1.728" r="1.728" transform="translate(241.087 223.128)"/><circle class="d" cx="1.962" cy="1.962" r="1.962" transform="translate(247.394 225.532)"/><circle class="d" cx="1.962" cy="1.962" r="1.962" transform="translate(266.492 171.041)"/><circle class="d" cx="2.302" cy="2.302" r="2.302" transform="translate(254.956 226.786)"/><circle class="d" cx="2.302" cy="2.302" r="2.302" transform="translate(273.688 173.367)"/><circle class="d" cx="2.533" cy="2.533" r="2.533" transform="translate(273.688 222.999)"/><circle class="c" cx="0.307" cy="0.307" r="0.307" transform="translate(281.85 195.146)"/><circle class="c" cx="0.307" cy="0.307" r="0.307" transform="translate(272.609 209.323)"/><circle class="c" cx="0.346" cy="0.346" r="0.346" transform="translate(281.381 193.68)"/><circle class="c" cx="0.346" cy="0.346" r="0.346" transform="translate(271.155 210.046)"/><circle class="c" cx="0.389" cy="0.389" r="0.389" transform="translate(280.882 192.32)"/><circle class="c" cx="0.389" cy="0.389" r="0.389" transform="translate(269.237 210.782)"/><circle class="c" cx="0.435" cy="0.435" r="0.435" transform="translate(280.261 190.863)"/><circle class="c" cx="0.508" cy="0.508" r="0.508" transform="translate(279.318 189.161)"/><circle class="c" cx="0.508" cy="0.508" r="0.508" transform="translate(266.973 211.448)"/><circle class="c" cx="0.564" cy="0.564" r="0.564" transform="translate(278.246 187.484)"/><circle class="c" cx="0.703" cy="0.703" r="0.703" transform="translate(276.79 185.538)"/><circle class="c" cx="0.703" cy="0.703" r="0.703" transform="translate(264.101 211.674)"/><circle class="c" cx="0.752" cy="0.752" r="0.752" transform="translate(274.972 183.568)"/><circle class="c" cx="0.856" cy="0.856" r="0.856" transform="translate(272.664 181.614)"/><circle class="c" cx="0.75" cy="0.75" r="0.75" transform="translate(261.133 211.956)"/><circle class="c" cx="0.856" cy="0.856" r="0.856" transform="translate(257.955 211.851)"/><circle class="c" cx="1.062" cy="1.062" r="1.062" transform="translate(269.485 179.449)"/><circle class="c" cx="1.206" cy="1.206" r="1.206" transform="translate(265.322 177.684)"/><circle class="c" cx="1.206" cy="1.206" r="1.206" transform="translate(253.586 211.171)"/><circle class="c" cx="1.415" cy="1.415" r="1.415" transform="translate(260.257 176.496)"/><circle class="c" cx="1.415" cy="1.415" r="1.415" transform="translate(248.746 209.323)"/><circle class="c" cx="1.557" cy="1.557" r="1.557" transform="translate(254.441 176.759)"/><circle class="c" cx="1.557" cy="1.557" r="1.557" transform="translate(248.462 178.539)"/><circle class="c" cx="1.557" cy="1.557" r="1.557" transform="translate(244.135 205.763)"/><circle class="c" cx="1.739" cy="1.739" r="1.739" transform="translate(243.01 181.828)"/><circle class="c" cx="1.739" cy="1.739" r="1.739" transform="translate(240.656 200.608)"/><circle class="c" cx="2.113" cy="2.113" r="2.113" transform="translate(239.158 187.041)"/><circle class="c" cx="2.113" cy="2.113" r="2.113" transform="translate(238.169 194.026)"/><circle class="d" cx="0.307" cy="0.307" r="0.307" transform="translate(237.519 199.019)"/><circle class="d" cx="0.307" cy="0.307" r="0.307" transform="translate(246.761 184.842)"/><circle class="d" cx="0.346" cy="0.346" r="0.346" transform="translate(237.911 200.408)"/><circle class="d" cx="0.346" cy="0.346" r="0.346" transform="translate(248.137 184.042)"/><circle class="d" cx="0.389" cy="0.389" r="0.389" transform="translate(238.324 201.682)"/><circle class="d" cx="0.389" cy="0.389" r="0.389" transform="translate(249.969 183.22)"/><circle class="d" cx="0.435" cy="0.435" r="0.435" transform="translate(238.852 203.046)"/><circle class="d" cx="0.508" cy="0.508" r="0.508" transform="translate(239.65 204.603)"/><circle class="d" cx="0.508" cy="0.508" r="0.508" transform="translate(251.996 182.315)"/><circle class="d" cx="0.564" cy="0.564" r="0.564" transform="translate(240.61 206.168)"/><circle class="d" cx="0.703" cy="0.703" r="0.703" transform="translate(241.788 207.836)"/><circle class="d" cx="0.703" cy="0.703" r="0.703" transform="translate(254.478 181.7)"/><circle class="d" cx="0.752" cy="0.752" r="0.752" transform="translate(243.508 209.708)"/><circle class="d" cx="0.856" cy="0.856" r="0.856" transform="translate(245.608 211.453)"/><circle class="d" cx="0.75" cy="0.75" r="0.75" transform="translate(257.35 181.322)"/><circle class="d" cx="0.856" cy="0.856" r="0.856" transform="translate(260.317 181.217)"/><circle class="d" cx="1.062" cy="1.062" r="1.062" transform="translate(248.374 213.206)"/><circle class="d" cx="1.206" cy="1.206" r="1.206" transform="translate(252.25 214.684)"/><circle class="d" cx="1.206" cy="1.206" r="1.206" transform="translate(263.987 181.198)"/><circle class="d" cx="1.415" cy="1.415" r="1.415" transform="translate(256.898 215.454)"/><circle class="d" cx="1.415" cy="1.415" r="1.415" transform="translate(268.409 182.627)"/><circle class="d" cx="1.557" cy="1.557" r="1.557" transform="translate(262.43 214.907)"/><circle class="d" cx="1.557" cy="1.557" r="1.557" transform="translate(268.409 213.127)"/><circle class="d" cx="1.557" cy="1.557" r="1.557" transform="translate(272.736 185.904)"/><circle class="d" cx="1.739" cy="1.739" r="1.739" transform="translate(273.495 209.472)"/><circle class="d" cx="1.739" cy="1.739" r="1.739" transform="translate(275.849 190.693)"/><circle class="d" cx="2.113" cy="2.113" r="2.113" transform="translate(276.6 203.512)"/><circle class="d" cx="2.113" cy="2.113" r="2.113" transform="translate(277.589 196.527)"/><circle class="c" cx="0.184" cy="0.184" r="0.184" transform="translate(273.056 196.049)"/><circle class="c" cx="0.184" cy="0.184" r="0.184" transform="translate(267.533 204.522)"/><circle class="c" cx="0.207" cy="0.207" r="0.207" transform="translate(272.776 195.173)"/><circle class="c" cx="0.207" cy="0.207" r="0.207" transform="translate(266.664 204.954)"/><circle class="c" cx="0.233" cy="0.233" r="0.233" transform="translate(272.478 194.359)"/><circle class="c" cx="0.233" cy="0.233" r="0.233" transform="translate(265.518 205.394)"/><circle class="c" cx="0.26" cy="0.26" r="0.26" transform="translate(272.107 193.489)"/><circle class="c" cx="0.304" cy="0.304" r="0.304" transform="translate(271.543 192.471)"/><circle class="c" cx="0.304" cy="0.304" r="0.304" transform="translate(264.164 205.792)"/><circle class="c" cx="0.337" cy="0.337" r="0.337" transform="translate(270.902 191.469)"/><circle class="c" cx="0.42" cy="0.42" r="0.42" transform="translate(270.032 190.306)"/><circle class="c" cx="0.42" cy="0.42" r="0.42" transform="translate(262.448 205.927)"/><circle class="c" cx="0.449" cy="0.449" r="0.449" transform="translate(268.945 189.128)"/><circle class="c" cx="0.512" cy="0.512" r="0.512" transform="translate(267.566 187.961)"/><circle class="c" cx="0.449" cy="0.449" r="0.449" transform="translate(260.674 206.096)"/><circle class="c" cx="0.512" cy="0.512" r="0.512" transform="translate(258.774 206.033)"/><circle class="c" cx="0.635" cy="0.635" r="0.635" transform="translate(265.666 186.667)"/><circle class="c" cx="0.721" cy="0.721" r="0.721" transform="translate(263.178 185.612)"/><circle class="c" cx="0.721" cy="0.721" r="0.721" transform="translate(256.163 205.626)"/><circle class="c" cx="0.846" cy="0.846" r="0.846" transform="translate(260.15 184.902)"/><circle class="c" cx="0.846" cy="0.846" r="0.846" transform="translate(253.27 204.522)"/><circle class="c" cx="0.93" cy="0.93" r="0.93" transform="translate(256.674 185.059)"/><circle class="c" cx="0.93" cy="0.93" r="0.93" transform="translate(253.101 186.123)"/><circle class="c" cx="0.93" cy="0.93" r="0.93" transform="translate(250.514 202.394)"/><circle class="c" cx="1.04" cy="1.04" r="1.04" transform="translate(249.842 188.089)"/><circle class="c" cx="1.04" cy="1.04" r="1.04" transform="translate(248.435 199.313)"/><circle class="c" cx="1.263" cy="1.263" r="1.263" transform="translate(247.54 191.204)"/><circle class="c" cx="1.263" cy="1.263" r="1.263" transform="translate(246.949 195.379)"/><circle class="d" cx="0.184" cy="0.184" r="0.184" transform="translate(246.56 198.364)"/><circle class="d" cx="0.184" cy="0.184" r="0.184" transform="translate(252.084 189.89)"/><circle class="d" cx="0.207" cy="0.207" r="0.207" transform="translate(246.795 199.194)"/><circle class="d" cx="0.207" cy="0.207" r="0.207" transform="translate(252.907 189.412)"/><circle class="d" cx="0.233" cy="0.233" r="0.233" transform="translate(247.041 199.955)"/><circle class="d" cx="0.233" cy="0.233" r="0.233" transform="translate(254.001 188.921)"/><circle class="d" cx="0.26" cy="0.26" r="0.26" transform="translate(247.357 200.77)"/><circle class="d" cx="0.304" cy="0.304" r="0.304" transform="translate(247.834 201.701)"/><circle class="d" cx="0.304" cy="0.304" r="0.304" transform="translate(255.213 188.38)"/><circle class="d" cx="0.337" cy="0.337" r="0.337" transform="translate(248.408 202.636)"/><circle class="d" cx="0.42" cy="0.42" r="0.42" transform="translate(249.112 203.634)"/><circle class="d" cx="0.42" cy="0.42" r="0.42" transform="translate(256.696 188.012)"/><circle class="d" cx="0.449" cy="0.449" r="0.449" transform="translate(250.14 204.752)"/><circle class="d" cx="0.512" cy="0.512" r="0.512" transform="translate(251.395 205.795)"/><circle class="d" cx="0.449" cy="0.449" r="0.449" transform="translate(258.413 187.786)"/><circle class="d" cx="0.512" cy="0.512" r="0.512" transform="translate(260.186 187.723)"/><circle class="d" cx="0.635" cy="0.635" r="0.635" transform="translate(253.048 206.843)"/><circle class="d" cx="0.721" cy="0.721" r="0.721" transform="translate(255.365 207.726)"/><circle class="d" cx="0.721" cy="0.721" r="0.721" transform="translate(262.38 187.712)"/><circle class="d" cx="0.846" cy="0.846" r="0.846" transform="translate(258.142 208.187)"/><circle class="d" cx="0.846" cy="0.846" r="0.846" transform="translate(265.022 188.566)"/><circle class="d" cx="0.93" cy="0.93" r="0.93" transform="translate(261.449 207.86)"/><circle class="d" cx="0.93" cy="0.93" r="0.93" transform="translate(265.022 206.796)"/><circle class="d" cx="0.93" cy="0.93" r="0.93" transform="translate(267.609 190.525)"/><circle class="d" cx="1.04" cy="1.04" r="1.04" transform="translate(268.062 204.611)"/><circle class="d" cx="1.04" cy="1.04" r="1.04" transform="translate(269.47 193.387)"/><circle class="d" cx="1.263" cy="1.263" r="1.263" transform="translate(269.918 201.049)"/><circle class="d" cx="1.263" cy="1.263" r="1.263" transform="translate(270.509 196.874)"/><circle class="c" cx="0.096" cy="0.096" r="0.096" transform="translate(266.839 196.687)"/><circle class="c" cx="0.096" cy="0.096" r="0.096" transform="translate(263.944 201.128)"/><circle class="c" cx="0.108" cy="0.108" r="0.108" transform="translate(266.692 196.228)"/><circle class="c" cx="0.108" cy="0.108" r="0.108" transform="translate(263.489 201.354)"/><circle class="c" cx="0.122" cy="0.122" r="0.122" transform="translate(266.535 195.802)"/><circle class="c" cx="0.122" cy="0.122" r="0.122" transform="translate(262.888 201.585)"/><circle class="c" cx="0.136" cy="0.136" r="0.136" transform="translate(266.341 195.345)"/><circle class="c" cx="0.159" cy="0.159" r="0.159" transform="translate(266.046 194.812)"/><circle class="c" cx="0.159" cy="0.159" r="0.159" transform="translate(262.179 201.793)"/><circle class="c" cx="0.177" cy="0.177" r="0.177" transform="translate(265.71 194.287)"/><circle class="c" cx="0.22" cy="0.22" r="0.22" transform="translate(265.254 193.677)"/><circle class="c" cx="0.22" cy="0.22" r="0.22" transform="translate(261.279 201.864)"/><circle class="c" cx="0.235" cy="0.235" r="0.235" transform="translate(264.684 193.06)"/><circle class="c" cx="0.268" cy="0.268" r="0.268" transform="translate(263.961 192.448)"/><circle class="c" cx="0.235" cy="0.235" r="0.235" transform="translate(260.349 201.952)"/><circle class="c" cx="0.268" cy="0.268" r="0.268" transform="translate(259.354 201.919)"/><circle class="c" cx="0.333" cy="0.333" r="0.333" transform="translate(262.966 191.77)"/><circle class="c" cx="0.378" cy="0.378" r="0.378" transform="translate(261.662 191.217)"/><circle class="c" cx="0.378" cy="0.378" r="0.378" transform="translate(257.985 201.706)"/><circle class="c" cx="0.443" cy="0.443" r="0.443" transform="translate(260.075 190.845)"/><circle class="c" cx="0.443" cy="0.443" r="0.443" transform="translate(256.469 201.128)"/><circle class="c" cx="0.488" cy="0.488" r="0.488" transform="translate(258.253 190.927)"/><circle class="c" cx="0.488" cy="0.488" r="0.488" transform="translate(256.38 191.485)"/><circle class="c" cx="0.488" cy="0.488" r="0.488" transform="translate(255.025 200.012)"/><circle class="c" cx="0.545" cy="0.545" r="0.545" transform="translate(254.673 192.515)"/><circle class="c" cx="0.545" cy="0.545" r="0.545" transform="translate(253.935 198.398)"/><circle class="c" cx="0.662" cy="0.662" r="0.662" transform="translate(253.466 194.148)"/><circle class="c" cx="0.662" cy="0.662" r="0.662" transform="translate(253.156 196.336)"/><circle class="d" cx="0.096" cy="0.096" r="0.096" transform="translate(252.953 197.9)"/><circle class="d" cx="0.096" cy="0.096" r="0.096" transform="translate(255.847 193.459)"/><circle class="d" cx="0.108" cy="0.108" r="0.108" transform="translate(253.076 198.335)"/><circle class="d" cx="0.108" cy="0.108" r="0.108" transform="translate(256.279 193.209)"/><circle class="d" cx="0.122" cy="0.122" r="0.122" transform="translate(253.205 198.734)"/><circle class="d" cx="0.122" cy="0.122" r="0.122" transform="translate(256.852 192.951)"/><circle class="d" cx="0.136" cy="0.136" r="0.136" transform="translate(253.37 199.161)"/><circle class="d" cx="0.159" cy="0.159" r="0.159" transform="translate(253.62 199.649)"/><circle class="d" cx="0.159" cy="0.159" r="0.159" transform="translate(257.487 192.668)"/><circle class="d" cx="0.177" cy="0.177" r="0.177" transform="translate(253.921 200.139)"/><circle class="d" cx="0.22" cy="0.22" r="0.22" transform="translate(254.29 200.662)"/><circle class="d" cx="0.22" cy="0.22" r="0.22" transform="translate(258.265 192.475)"/><circle class="d" cx="0.235" cy="0.235" r="0.235" transform="translate(254.829 201.248)"/><circle class="d" cx="0.268" cy="0.268" r="0.268" transform="translate(255.486 201.795)"/><circle class="d" cx="0.235" cy="0.235" r="0.235" transform="translate(259.164 192.357)"/><circle class="d" cx="0.268" cy="0.268" r="0.268" transform="translate(260.094 192.324)"/><circle class="d" cx="0.333" cy="0.333" r="0.333" transform="translate(256.353 202.344)"/><circle class="d" cx="0.378" cy="0.378" r="0.378" transform="translate(257.567 202.807)"/><circle class="d" cx="0.378" cy="0.378" r="0.378" transform="translate(261.243 192.318)"/><circle class="d" cx="0.443" cy="0.443" r="0.443" transform="translate(259.023 203.048)"/><circle class="d" cx="0.443" cy="0.443" r="0.443" transform="translate(262.628 192.766)"/><circle class="d" cx="0.488" cy="0.488" r="0.488" transform="translate(260.756 202.877)"/><circle class="d" cx="0.488" cy="0.488" r="0.488" transform="translate(262.628 202.319)"/><circle class="d" cx="0.488" cy="0.488" r="0.488" transform="translate(263.984 193.792)"/><circle class="d" cx="0.545" cy="0.545" r="0.545" transform="translate(264.222 201.174)"/><circle class="d" cx="0.545" cy="0.545" r="0.545" transform="translate(264.959 195.292)"/><circle class="d" cx="0.662" cy="0.662" r="0.662" transform="translate(265.194 199.308)"/><circle class="d" cx="0.662" cy="0.662" r="0.662" transform="translate(265.504 197.12)"/><path class="c" d="M292.133,407.51c.183.125.376.022.574-.169l-.675-.459C291.906,407.173,291.961,407.394,292.133,407.51Zm0,0c.183.125.376.022.574-.169l-.675-.459C291.906,407.173,291.961,407.394,292.133,407.51Zm1.369-.161.806.548c.152-.29.18-.6-.077-.772C294,406.97,293.754,407.1,293.5,407.349Zm0,0,.806.548c.152-.29.18-.6-.077-.772C294,406.97,293.754,407.1,293.5,407.349Zm-1.369.161c.183.125.376.022.574-.169l-.675-.459C291.906,407.173,291.961,407.394,292.133,407.51Zm-3.812-.451,6.93,4.718,2.757-4.049-6.93-4.718Zm6.466,1.165.585.4-.248.365-.585-.4a1.329,1.329,0,0,1-1.389.565l.073-.6a.881.881,0,0,0,.829-.295l-.847-.576c-.418.434-.887.721-1.445.341a1.067,1.067,0,0,1-.2-1.457l-.6-.41.248-.365.6.408a1.288,1.288,0,0,1,1.188-.555l-.069.572a.906.906,0,0,0-.645.306l.731.5c.447-.489.946-.849,1.576-.42A1.14,1.14,0,0,1,294.787,408.224Zm-1.286-.875.806.548c.152-.29.18-.6-.077-.772C294,406.97,293.754,407.1,293.5,407.349Zm-1.369.161c.183.125.376.022.574-.169l-.675-.459C291.906,407.173,291.961,407.394,292.133,407.51Zm0,0c.183.125.376.022.574-.169l-.675-.459C291.906,407.173,291.961,407.394,292.133,407.51Zm1.369-.161.806.548c.152-.29.18-.6-.077-.772C294,406.97,293.754,407.1,293.5,407.349Zm-1.369.161c.183.125.376.022.574-.169l-.675-.459C291.906,407.173,291.961,407.394,292.133,407.51Z" transform="translate(-57.173 -177.419)"/><path class="d" d="M411.94,190.1c.181.065.32-.064.445-.267l-.667-.238C411.676,189.868,411.77,190.041,411.94,190.1Zm0,0c.181.065.32-.064.445-.267l-.667-.238C411.676,189.868,411.77,190.041,411.94,190.1Zm1.113-.435.8.284c.064-.277.021-.54-.233-.63C413.39,189.24,413.209,189.4,413.053,189.667Zm0,0,.8.284c.064-.277.021-.54-.233-.63C413.39,189.24,413.209,189.4,413.053,189.667Zm-1.113.435c.181.065.32-.064.445-.267l-.667-.238C411.676,189.868,411.77,190.041,411.94,190.1Zm-3.3.455L415.489,193l1.427-4-6.845-2.443Zm5.678-.436.578.206-.129.36-.578-.206a1.151,1.151,0,0,1-1.042.777l-.071-.52a.763.763,0,0,0,.631-.428l-.836-.3c-.256.456-.587.8-1.138.6a.925.925,0,0,1-.483-1.18l-.6-.212.129-.36.591.211a1.117,1.117,0,0,1,.876-.726l.067.5a.785.785,0,0,0-.474.4l.722.258c.268-.508.608-.919,1.23-.7C414.366,189,414.477,189.554,414.322,190.12Zm-1.269-.453.8.284c.064-.277.021-.54-.233-.63C413.39,189.24,413.209,189.4,413.053,189.667Zm-1.113.435c.181.065.32-.064.445-.267l-.667-.238C411.676,189.868,411.77,190.041,411.94,190.1Zm0,0c.181.065.32-.064.445-.267l-.667-.238C411.676,189.868,411.77,190.041,411.94,190.1Zm1.113-.435.8.284c.064-.277.021-.54-.233-.63C413.39,189.24,413.209,189.4,413.053,189.667Zm-1.113.435c.181.065.32-.064.445-.267l-.667-.238C411.676,189.868,411.77,190.041,411.94,190.1Z" transform="translate(-139.866 -28.659)"/><path class="c" d="M294.578,170.114l1.48-1.035a1.757,1.757,0,0,1,.034,1.2l1.028.6a2.512,2.512,0,0,0-.068-2.488l.713-.5-.727-1.04-.712.5c-.779-.87-1.934-1.477-3.007-.727-1.2.837-.878,1.936-.316,3.049l-1.726,1.206a1.968,1.968,0,0,1-.017-1.756l-1.085-.681a2.972,2.972,0,0,0,.1,3.133l-.778.544.727,1.04.819-.572a2.3,2.3,0,0,0,3.159.682C295.435,172.4,295.123,171.242,294.578,170.114Zm-.511-2.423c.435-.3.9-.1,1.311.316l-1.38.964C293.759,168.442,293.665,167.973,294.068,167.691Zm-2.045,4.209,1.545-1.08c.209.559.24,1.051-.145,1.32A1.085,1.085,0,0,1,292.022,171.9Z" transform="translate(-57.984 -14.723)"/><path class="c" d="M274.837,259.015l.235-2.038a2,2,0,0,1,1.042.871l1.283-.423a2.852,2.852,0,0,0-2.167-1.816l.113-.981-1.432-.165-.113.981c-1.326.007-2.713.533-2.883,2.01-.19,1.648.985,2.2,2.355,2.564L273,262.394a2.236,2.236,0,0,1-1.506-1.309l-1.4.41a3.377,3.377,0,0,0,2.743,2.271l-.124,1.071,1.432.165.13-1.128a2.615,2.615,0,0,0,2.959-2.173C277.431,260.012,276.207,259.4,274.837,259.015Zm-2.445-1.391c.069-.6.6-.842,1.255-.877l-.219,1.9C272.8,258.452,272.328,258.178,272.392,257.624Zm2.039,4.91.245-2.127c.633.243,1.075.587,1.014,1.117C275.618,262.154,275.095,262.456,274.431,262.534Z" transform="translate(-44.646 -75.328)"/><path class="c" d="M224.185,233.645l.512-2.563a2.54,2.54,0,0,1,1.233,1.215l1.674-.4a3.636,3.636,0,0,0-2.563-2.533l.246-1.234-1.8-.36L223.239,229c-1.685-.13-3.5.392-3.872,2.251-.414,2.073,1.02,2.9,2.723,3.5l-.6,2.989a2.848,2.848,0,0,1-1.776-1.82l-1.816.375a4.3,4.3,0,0,0,3.247,3.171l-.269,1.348,1.8.36.283-1.419c1.785.224,3.6-.534,3.986-2.449C227.374,235.182,225.884,234.279,224.185,233.645Zm-2.96-2.022c.15-.753.846-1.006,1.686-.983l-.477,2.391C221.654,232.717,221.086,232.32,221.225,231.623Zm2.076,6.449.534-2.675c.778.375,1.3.858,1.171,1.525C224.847,237.714,224.151,238.042,223.3,238.072Z" transform="translate(-8.776 -56.981)"/><path class="d" d="M526.956,308.436v-2.482a2.413,2.413,0,0,1,1.374.9l1.484-.687a3.453,3.453,0,0,0-2.858-1.882v-1.2h-1.745v1.2c-1.594.192-3.187,1.016-3.187,2.816,0,2.007,1.49,2.513,3.187,2.756v2.894a2.705,2.705,0,0,1-1.992-1.364l-1.621.687a4.086,4.086,0,0,0,3.613,2.349v1.305h1.745v-1.374c1.7-.124,3.256-1.167,3.256-3.022C530.211,309.275,528.656,308.711,526.956,308.436Zm-3.132-1.333c0-.729.6-1.095,1.388-1.229v2.315C524.426,308.042,523.823,307.779,523.823,307.1Zm3.132,5.619v-2.591c.794.2,1.374.557,1.374,1.2C528.329,312.1,527.743,312.537,526.956,312.723Z" transform="translate(-217.495 -108.749)"/><path class="d" d="M402.239,455.616l1.93-.205a1.886,1.886,0,0,1-.588,1.143l.657,1.1a2.7,2.7,0,0,0,1.227-2.378l.929-.1-.144-1.357-.929.1c-.281-1.223-1.054-2.394-2.454-2.245-1.561.166-1.831,1.367-1.879,2.706l-2.25.24a2.114,2.114,0,0,1,.9-1.662l-.668-1.2a3.2,3.2,0,0,0-1.528,3l-1.015.108.145,1.356,1.068-.114a2.474,2.474,0,0,0,2.62,2.281C401.856,458.217,402.166,456.961,402.239,455.616Zm.777-2.546c.567-.06.9.376,1.07.977l-1.8.192C402.335,453.617,402.49,453.126,403.016,453.07Zm-4.11,2.9,2.015-.214c-.093.635-.319,1.114-.821,1.167C399.5,456.988,399.115,456.567,398.905,455.971Z" transform="translate(-131.466 -210.853)"/><path class="d" d="M466.071,279.085l-.514-1.349a1.4,1.4,0,0,1,.933.206l.664-.68a2.007,2.007,0,0,0-1.942-.431l-.247-.65-.948.361.247.649c-.826.434-1.521,1.212-1.149,2.19.415,1.091,1.33,1.057,2.3.838l.6,1.572a1.573,1.573,0,0,1-1.365-.329l-.739.709a2.375,2.375,0,0,0,2.449.529l.27.709.948-.361-.284-.746a1.84,1.84,0,0,0,1.144-2.316C468.014,278.867,467.052,278.882,466.071,279.085Zm-1.977-.076c-.151-.4.1-.719.5-.955l.479,1.258C464.615,279.394,464.233,279.376,464.093,279.009Zm2.865,2.405-.536-1.408c.474-.053.862.018,1,.369A.867.867,0,0,1,466.958,281.414Z" transform="translate(-177.231 -90.254)"/><path class="d" d="M396.008,407.166l1.278-.136a1.249,1.249,0,0,1-.389.757l.435.726a1.788,1.788,0,0,0,.812-1.574l.615-.065-.1-.9-.615.066c-.186-.81-.7-1.585-1.624-1.486-1.033.11-1.212.905-1.244,1.792l-1.49.159a1.4,1.4,0,0,1,.593-1.1l-.442-.8a2.115,2.115,0,0,0-1.011,1.989l-.672.071.1.9.707-.075a1.638,1.638,0,0,0,1.734,1.51C395.755,408.888,395.96,408.056,396.008,407.166Zm.514-1.685c.375-.04.6.249.708.647l-1.192.127C396.072,405.842,396.175,405.517,396.523,405.481ZM393.8,407.4l1.334-.142c-.062.42-.211.738-.544.773C394.2,408.074,393.94,407.8,393.8,407.4Z" transform="translate(-128.536 -178.474)"/><path class="c" d="M222.98,292.534l-.483-4.021-.276-2.321-.019-.163q-.2-1.666-.4-3.331a.933.933,0,0,0-.22-.5.958.958,0,0,0-.891-.295c-1.825.226-3.651.439-5.483.652a.891.891,0,0,0-.816.847,4.34,4.34,0,0,0,.057.634c.088.765.182,1.531.276,2.3.119,1.041.245,2.076.37,3.111.1.841.2,1.675.295,2.515.132,1.073.257,2.152.382,3.225a.9.9,0,0,0,1.048.809q2.117-.254,4.241-.5c.433-.057.872-.107,1.3-.157a1.192,1.192,0,0,0,.257-.063.9.9,0,0,0,.558-.96C223.118,293.72,223.049,293.124,222.98,292.534ZM217,283.162c.646-.075,1.292-.157,1.938-.232.082-.013.157,0,.17.094s-.063.113-.144.125l-.966.113c-.326.038-.646.075-.966.119-.088.006-.169.006-.176-.094S216.92,283.169,217,283.162Zm2.716,11.681a.465.465,0,0,1-.088.069.494.494,0,0,1-.075.044.576.576,0,0,1-.157.044.558.558,0,0,1-.634-.5.552.552,0,0,1,.057-.32l.006-.006a.1.1,0,0,1,.025-.044.566.566,0,0,1,1.035.238.542.542,0,0,1-.094.383A.331.331,0,0,1,219.718,294.843Zm-1.794-1.192-1.832.22-.169-1.449-.778-6.543-.207-1.725,6.424-.765.339,2.842.822,6.875Z" transform="translate(-6.368 -94.178)"/><path class="c" d="M302.465,357.335l-1.131-1.461-.652-.844-.045-.059-.935-1.212a.423.423,0,0,0-.2-.145.437.437,0,0,0-.418.093c-.662.516-1.327,1.027-1.994,1.54a.406.406,0,0,0-.121.523,1.939,1.939,0,0,0,.171.235c.214.279.43.557.646.834.291.38.582.756.874,1.132.236.306.471.609.7.916.3.389.6.782.905,1.173a.411.411,0,0,0,.6.072q.769-.6,1.543-1.19c.156-.124.316-.246.474-.367a.551.551,0,0,0,.086-.085.41.41,0,0,0-.006-.507Zm-4.537-2.27c.236-.181.469-.364.7-.545.029-.024.061-.037.088,0s0,.059-.027.083l-.352.271c-.119.091-.235.181-.35.273-.033.023-.065.042-.091,0S297.9,355.087,297.928,355.065Zm3.8,3.938a.213.213,0,0,1-.018.048.211.211,0,0,1-.019.035.257.257,0,0,1-.051.054.258.258,0,0,1-.417-.184v0a.045.045,0,0,1,0-.023.258.258,0,0,1,.461-.149.248.248,0,0,1,.053.172A.154.154,0,0,1,301.729,359Zm-.982-.046-.666.515-.406-.528-1.838-2.38-.485-.627,2.336-1.8.8,1.034,1.932,2.5Z" transform="translate(-63.079 -143.457)"/><path class="d" d="M511.66,367.624l1.928-3.014,1.115-1.738.079-.122,1.6-2.494a.822.822,0,0,0,.132-.466.846.846,0,0,0-.442-.7c-1.372-.871-2.737-1.75-4.107-2.633a.787.787,0,0,0-1.032.12,3.777,3.777,0,0,0-.317.464c-.37.571-.735,1.146-1.1,1.721-.5.777-1,1.554-1.494,2.33-.4.63-.8,1.255-1.211,1.882-.513.806-1.033,1.612-1.549,2.414a.8.8,0,0,0,.26,1.14q1.587,1.015,3.175,2.038c.327.2.655.417.978.625a1.055,1.055,0,0,0,.211.1.794.794,0,0,0,.92-.341Zm1.183-9.75c.483.311.97.619,1.453.93.063.037.107.088.063.159s-.106.042-.169,0l-.722-.465c-.244-.158-.483-.311-.726-.461-.063-.045-.119-.091-.067-.163S512.784,357.832,512.843,357.874Zm-4.7,9.493a.419.419,0,0,1-.1,0,.434.434,0,0,1-.076-.012.511.511,0,0,1-.132-.058.5.5,0,0,1,.064-.88h.008a.09.09,0,0,1,.042-.016.5.5,0,0,1,.572.744.48.48,0,0,1-.279.208A.292.292,0,0,1,508.138,367.367Zm-.555-1.82-1.373-.879.7-1.084,3.143-4.9.827-1.293,4.812,3.084-1.364,2.129-3.3,5.152Z" transform="translate(-206.171 -145.328)"/><path class="d" d="M448.455,253.562l-1.378-1.643-.794-.949-.055-.067-1.139-1.362a.5.5,0,0,0-.242-.159.508.508,0,0,0-.48.127c-.744.628-1.491,1.251-2.242,1.876a.472.472,0,0,0-.116.611,2.3,2.3,0,0,0,.208.265q.391.471.787.938c.354.427.709.85,1.064,1.272.288.344.574.684.859,1.03.369.437.737.879,1.1,1.319a.476.476,0,0,0,.7.056q.865-.725,1.735-1.45c.175-.15.356-.3.533-.447a.631.631,0,0,0,.1-.1.476.476,0,0,0-.03-.587Zm-5.362-2.425c.265-.22.527-.443.792-.664.033-.029.069-.045.1-.008s0,.068-.028.1l-.4.33c-.134.111-.265.22-.394.332-.037.028-.073.052-.105.009S443.059,251.164,443.093,251.137Zm4.584,4.392a.247.247,0,0,1-.019.056.241.241,0,0,1-.021.041.309.309,0,0,1-.057.065.3.3,0,0,1-.492-.195v0a.057.057,0,0,1,0-.027.3.3,0,0,1,.528-.194.288.288,0,0,1,.069.2A.173.173,0,0,1,447.677,255.529Zm-1.14-.009-.748.628-.494-.594-2.238-2.675-.591-.7,2.626-2.2.972,1.162,2.354,2.81Z" transform="translate(-162.75 -71.824)"/><path class="c" d="M238.768,340.676l-3.619-7.553a1.01,1.01,0,0,0-1.346-.474l-4.722,2.263a1.01,1.01,0,0,0-.474,1.346l3.619,7.553a1.01,1.01,0,0,0,1.346.474l4.722-2.262A1.011,1.011,0,0,0,238.768,340.676Zm-5.458,3.062a.4.4,0,0,1-.537-.189L229.154,336a.4.4,0,0,1,.189-.537l2.551-1.222,3.967,8.279Zm4.722-2.262-1.039.5-3.967-8.279,1.039-.5a.4.4,0,0,1,.537.189l3.619,7.553A.4.4,0,0,1,238.032,341.476Z" transform="translate(-16.066 -128.995)"/><rect class="c" width="0.792" height="4.279" transform="translate(215.284 208.22) rotate(-25.603)"/><path class="d" d="M361.943,455.868l-6.231-.437a.753.753,0,0,0-.8.7l-.273,3.9a.753.753,0,0,0,.7.8l6.231.437a.754.754,0,0,0,.8-.7l.273-3.9A.754.754,0,0,0,361.943,455.868Zm-6.263.014,6.231.438a.3.3,0,0,1,.279.321l-.06.858-6.831-.479.06-.858A.3.3,0,0,1,355.68,455.882Zm5.916,4.932-6.231-.437a.3.3,0,0,1-.279-.321l.148-2.1,6.83.479-.148,2.1A.3.3,0,0,1,361.6,460.814Z" transform="translate(-102.746 -213.444)"/><rect class="d" width="0.59" height="3.191" transform="translate(254.218 245.957) rotate(-85.985)"/><path class="d" d="M512.151,262.465l-3.619-7.553a1.011,1.011,0,0,0-1.346-.474l-4.721,2.262a1.01,1.01,0,0,0-.474,1.346l3.619,7.553a1.01,1.01,0,0,0,1.346.474l4.722-2.263A1.01,1.01,0,0,0,512.151,262.465Zm-5.458,3.062a.4.4,0,0,1-.537-.189l-3.619-7.553a.4.4,0,0,1,.189-.537l2.551-1.222,3.967,8.279Zm4.722-2.262-1.039.5-3.967-8.279,1.039-.5a.4.4,0,0,1,.537.189l3.619,7.553A.4.4,0,0,1,511.415,263.264Z" transform="translate(-203.951 -75.243)"/><rect class="d" width="0.792" height="4.279" transform="translate(300.783 183.76) rotate(-25.603)"/><path class="d" d="M478.819,308.753a.786.786,0,0,0-.852-.711l-4.055.363a.785.785,0,0,0-.711.851l.581,6.486a.786.786,0,0,0,.852.711l4.055-.363a.786.786,0,0,0,.711-.852Zm-4.228,7.231a.313.313,0,0,1-.34-.284l-.581-6.486a.314.314,0,0,1,.284-.34l2.19-.2.636,7.11Zm4.055-.363-.892.08-.637-7.11.893-.08a.313.313,0,0,1,.34.284l.581,6.486A.313.313,0,0,1,478.646,315.621Z" transform="translate(-184.231 -112.149)"/><rect class="d" width="0.616" height="3.327" transform="translate(290.707 198.551) rotate(-5.117)"/><path class="c" d="M324.058,215.333l-1.415-3.044a.647.647,0,0,0-.859-.314l-4.87,2.264a.648.648,0,0,0-.314.859l1.415,3.045a.648.648,0,0,0,.859.314l4.87-2.264A.648.648,0,0,0,324.058,215.333Zm-6.981-.742,4.87-2.264a.259.259,0,0,1,.343.125l.765,1.645-5.339,2.482-.764-1.645A.258.258,0,0,1,317.077,214.591Zm6.5,1.249-4.87,2.264a.259.259,0,0,1-.343-.125l-.311-.67,5.338-2.482.312.67A.258.258,0,0,1,323.581,215.84Z" transform="translate(-76.566 -46.086)"/><rect class="c" width="2.744" height="0.508" transform="translate(242.095 168.796) rotate(-24.934)"/><path class="d" d="M491.39,417.747l.318-8.331-8.323-.48,1.579,1.751-3.759,3.42,4.83,5.323L489.811,416Zm-5.29-5.834.935-.843,1.012,1.122-.935.843-.187.169-1.011-1.122Zm-.843,2.825-1.011-1.122,1.122-1.011,1.011,1.122Zm1.548,1.718-1.011-1.122,1.122-1.011,1.012,1.122Zm1.683-1.518-1.012-1.122.187-.169.935-.843,1.012,1.122-.935.843Z" transform="translate(-189.734 -181.492)"/><path class="d" d="M473.162,354.457l-1.227-7.175-7.2,1.087,1.664,1.212-2.6,3.6,5.085,3.68,2.609-3.614Zm-5.569-4.032.647-.889,1.066.777-.647.888-.129.178-1.066-.777Zm-.212,2.565-1.066-.777.777-1.066,1.066.777Zm1.632,1.189-1.066-.777.777-1.066,1.066.777Zm1.165-1.6-1.066-.777.129-.178.647-.888,1.066.777-.647.889Z" transform="translate(-177.776 -139.119)"/><path class="d" d="M485.791,223.042l-7.139-1.425-1.563,7.109,1.728-1.119,2.429,3.713,5.257-3.429-2.44-3.73Zm-5.76,3.755-.6-.923,1.107-.717.6.923.119.185-1.107.717Zm2.319,1.117-1.107.717-.717-1.107,1.107-.717Zm1.694-1.1-1.107.717-.717-1.107,1.107-.717Zm-1.076-1.661-1.107.717-.12-.185-.6-.923,1.107-.717.6.923Z" transform="translate(-186.905 -52.755)"/><path class="c" d="M255.8,199.406l-1.059-7.2-7.221.919,1.635,1.251-2.68,3.536,5,3.8,2.692-3.552Zm-5.473-4.162.668-.873,1.048.8-.668.873-.134.175-1.048-.8Zm-.272,2.56L249,197l.8-1.048,1.048.8Zm1.6,1.227-1.048-.8.8-1.048,1.048.8Zm1.2-1.572-1.048-.8.134-.175.668-.873,1.048.8-.668.873Z" transform="translate(-28.412 -32.54)"/><path class="c" d="M381.167,155.239l4.85-5.428-5.333-4.954.088,2.057-4.432.209.287,6.27,4.452-.21Zm-.313-6.869,1.1-.047.056,1.318-1.1.047-.22.009-.056-1.318Zm-2.139,1.432-.056-1.318,1.318-.056.056,1.318Zm.086,2.017-.056-1.318,1.318-.056.056,1.318Zm1.977-.084-.056-1.318.22-.009,1.1-.047.056,1.318-1.1.047Z" transform="translate(-117.665)"/><path class="c" d="M286.953,329.033l-4.53-1.839-1.927,4.493,1.281-.521,1.135,2.756,3.9-1.6-1.14-2.768Zm-4.273,1.752-.278-.684.821-.334.278.684.056.137-.821.334Zm1.389,1.029-.821.334-.334-.821.821-.334Zm1.256-.511-.821.334-.334-.821.821-.334Zm-.5-1.231-.821.334-.056-.137-.278-.684.821-.334.278.684Z" transform="translate(-51.795 -125.314)"/></g></g></svg>